<svg width="108" height="108" viewBox="0 0 108 108" fill="none" xmlns="http://www.w3.org/2000/svg">
<g clip-path="url(#clip0_1832_13524)" filter="url(#filter0_d_1832_13524)">
<path fill-rule="evenodd" clip-rule="evenodd" d="M84 70.7738C84 71.102 83.9894 71.8145 83.9695 72.3652C83.9215 73.7117 83.8148 75.4496 83.6531 76.2406C83.4374 77.3666 83.072 78.4587 82.5668 79.4879C81.4556 81.6819 79.6724 83.4635 77.4773 84.5727C76.4421 85.0793 75.3436 85.445 74.2113 85.6602C73.4273 85.8184 71.7023 85.9227 70.3652 85.9707C69.8133 85.9906 69.1008 86 68.7738 86H39.2309C38.9027 86 38.1902 85.9894 37.6395 85.9695C36.293 85.9215 34.5551 85.8148 33.7641 85.6543C32.6378 85.4374 31.5454 85.0717 30.5156 84.5668C28.3198 83.4547 26.5369 81.6698 25.4273 79.4727C24.9207 78.4374 24.555 77.339 24.3398 76.2066C24.1816 75.4227 24.0773 73.6953 24.0293 72.3605C24.0094 71.8098 24 71.0961 24 70.7656V41.2227C24 40.8945 24.0105 40.182 24.0293 39.6313C24.0832 38.2883 24.1898 36.5469 24.3516 35.7594C24.5681 34.6332 24.9334 33.5408 25.4379 32.5109C26.5502 30.318 28.3331 28.5371 30.5273 27.4273C31.5626 26.9207 32.661 26.555 33.7934 26.3398C34.5773 26.1816 36.3047 26.0773 37.6395 26.0293C38.1902 26.0094 38.9039 26 39.2344 26H68.7773C69.1055 26 69.818 26.0105 70.3687 26.0293C71.7117 26.0832 73.4531 26.1898 74.2406 26.3516C75.3668 26.5681 76.4592 26.9334 77.4891 27.4379C79.682 28.5502 81.4629 30.3331 82.5727 32.5273C83.0793 33.5626 83.445 34.661 83.6602 35.7934C83.8184 36.5773 83.9227 38.3023 83.9707 39.6395C83.9906 40.1902 84 40.9039 84 41.2309V70.7738Z" fill="url(#paint0_linear_1832_13524)"/>
<path fill-rule="evenodd" clip-rule="evenodd" d="M68.4797 41.4306C66.5943 39.5313 64.3503 38.0256 61.8781 37.0008C59.4059 35.976 56.7547 35.4526 54.0785 35.461C42.8672 35.461 33.7324 44.5911 33.7324 55.8153C33.7292 59.3867 34.6669 62.8958 36.4512 65.9896L33.5625 76.5364L44.3531 73.704C47.3371 75.3306 50.6811 76.1836 54.0797 76.1849H54.0879C65.3062 76.1849 74.4422 67.0548 74.4422 55.8306C74.4483 53.1557 73.9242 50.5062 72.9001 48.0352C71.8761 45.5641 70.3725 43.3205 68.4762 41.4341L68.4797 41.4306ZM54.0844 72.7583C51.0528 72.7588 48.0769 71.9436 45.4687 70.3981L44.8488 70.029L38.4457 71.7036L40.1555 65.461L39.7547 64.82C38.0547 62.1261 37.1561 59.0043 37.1637 55.8189C37.1637 46.486 44.7539 38.8911 54.0937 38.8911C56.3162 38.8914 58.5168 39.3297 60.5699 40.1809C62.6229 41.0321 64.488 42.2796 66.0586 43.852C67.6293 45.4244 68.8747 47.2909 69.7236 49.3448C70.5726 51.3988 71.0084 53.5999 71.0062 55.8224C70.998 65.1587 63.409 72.7513 54.0832 72.7513L54.0844 72.7583ZM63.3598 60.0786C62.8535 59.8208 60.3504 58.5939 59.8852 58.4239C59.4199 58.254 59.0824 58.1673 58.7367 58.6817C58.391 59.1962 57.4219 60.3353 57.1242 60.6739C56.8266 61.0126 56.5312 61.0595 56.0262 60.8017C55.5211 60.5439 53.8758 60.0083 51.934 58.2751C50.4246 56.9274 49.4016 55.2587 49.1039 54.7595C48.8062 54.2603 49.0699 53.9731 49.3289 53.7247C49.5633 53.4985 49.8352 53.1317 50.0918 52.8341C50.3484 52.5364 50.4293 52.3278 50.598 51.9833C50.7668 51.6388 50.6848 51.3481 50.557 51.0927C50.4293 50.8372 49.4086 48.3329 48.9937 47.3134C48.5848 46.3161 48.1594 46.4556 47.8465 46.438C47.5336 46.4204 47.2113 46.4228 46.875 46.4228C46.6176 46.4297 46.3643 46.4895 46.1311 46.5986C45.8978 46.7077 45.6895 46.8636 45.5191 47.0567C45.0504 47.563 43.7379 48.7981 43.7379 51.3013C43.7379 53.8044 45.559 56.2231 45.8145 56.5642C46.0699 56.9052 49.4016 62.0439 54.5027 64.2446C55.7145 64.7649 56.6613 65.0778 57.3996 65.3204C58.4371 65.633 59.5328 65.7016 60.6012 65.5208C61.5797 65.3767 63.6105 64.2915 64.0359 63.1044C64.4613 61.9173 64.4613 60.8978 64.3348 60.688C64.2082 60.4782 63.8766 60.3364 63.3633 60.0763L63.3598 60.0786Z" fill="white"/>
</g>
<defs>
<filter id="filter0_d_1832_13524" x="0" y="0" width="108" height="108" filterUnits="userSpaceOnUse" color-interpolation-filters="sRGB">
<feFlood flood-opacity="0" result="BackgroundImageFix"/>
<feColorMatrix in="SourceAlpha" type="matrix" values="0 0 0 0 0 0 0 0 0 0 0 0 0 0 0 0 0 0 127 0" result="hardAlpha"/>
<feOffset dy="-2"/>
<feGaussianBlur stdDeviation="12"/>
<feComposite in2="hardAlpha" operator="out"/>
<feColorMatrix type="matrix" values="0 0 0 0 0 0 0 0 0 0 0 0 0 0 0 0 0 0 0.05 0"/>
<feBlend mode="normal" in2="BackgroundImageFix" result="effect1_dropShadow_1832_13524"/>
<feBlend mode="normal" in="SourceGraphic" in2="effect1_dropShadow_1832_13524" result="shape"/>
</filter>
<linearGradient id="paint0_linear_1832_13524" x1="53.8703" y1="26.0497" x2="53.8703" y2="85.7897" gradientUnits="userSpaceOnUse">
<stop stop-color="#61FD7D"/>
<stop offset="1" stop-color="#2BB826"/>
</linearGradient>
<clipPath id="clip0_1832_13524">
<rect width="60" height="60" fill="white" transform="translate(24 26)"/>
</clipPath>
</defs>
</svg>
